<svg width="24" height="24" viewBox="0 0 24 24" fill="none" xmlns="http://www.w3.org/2000/svg">
<path d="M11.3408 2.1037C11.7333 1.96543 12.1661 1.96543 12.5687 2.1037L19.2014 4.32867C19.9462 4.57382 20.4495 5.26122 20.4495 6.02608L20.4999 12.6637C20.5099 14.674 19.7751 16.6253 18.4264 18.1561C17.8125 18.8621 17.0174 19.4603 16.0109 19.9996L12.4379 21.9117C12.3272 21.9706 12.2064 22 12.0856 22C11.9648 22 11.834 21.9706 11.7233 21.9117L8.12005 20.0486C7.1035 19.5191 6.30838 18.9307 5.68436 18.2345C4.31554 16.7244 3.55062 14.773 3.54055 12.7628L3.50014 6.12316C3.49023 5.3583 3.99347 4.67286 4.7282 4.41693L11.3408 2.1037Z" fill="black"/>
<rect x="11" y="8.5" width="2" height="6" fill="white"/>
<rect x="9" y="12.5" width="2" height="6" transform="rotate(-90 9 12.5)" fill="white"/>
</svg>
